<svg id="visual" viewBox="0 0 400 300" width="400" height="300" xmlns="http://www.w3.org/2000/svg" xmlns:xlink="http://www.w3.org/1999/xlink" version="1.1"><rect x="0" y="0" width="400" height="300" fill="#F1F1D3"></rect><defs><linearGradient id="grad1_0" x1="25%" y1="0%" x2="100%" y2="100%"><stop offset="23.333333333333336%" stop-color="#f1f1d3" stop-opacity="1"></stop><stop offset="76.66666666666666%" stop-color="#f1f1d3" stop-opacity="1"></stop></linearGradient></defs><defs><linearGradient id="grad2_0" x1="0%" y1="0%" x2="75%" y2="100%"><stop offset="23.333333333333336%" stop-color="#f1f1d3" stop-opacity="1"></stop><stop offset="76.66666666666666%" stop-color="#f1f1d3" stop-opacity="1"></stop></linearGradient></defs><g transform="translate(400, 0)"><path d="M0 112.5C-5.4 91.7 -10.8 71 -17.9 66.6C-24.9 62.3 -33.5 74.5 -47 81.4C-60.5 88.3 -78.8 90.1 -79.5 79.5C-80.3 69 -63.3 46.1 -61.5 35.5C-59.7 24.9 -73 26.4 -84 22.5C-95.1 18.6 -103.8 9.3 -112.5 0L0 0Z" fill="#7DC2A5"></path></g><g transform="translate(0, 300)"><path d="M0 -112.5C9.8 -112.2 19.6 -111.9 29.1 -108.7C38.6 -105.4 47.8 -99.3 50.5 -87.5C53.2 -75.6 49.4 -58.1 48.1 -48.1C46.8 -38.1 48 -35.7 59.8 -34.5C71.5 -33.3 93.8 -33.5 104.3 -28C114.9 -22.4 113.7 -11.2 112.5 0L0 0Z" fill="#7DC2A5"></path></g></svg>