<svg id="visual" viewBox="0 0 400 300" width="400" height="300" xmlns="http://www.w3.org/2000/svg" xmlns:xlink="http://www.w3.org/1999/xlink" version="1.1"><rect x="0" y="0" width="400" height="300" fill="#F1F1D3"></rect><path d="M0 47L5.5 50C11 53 22 59 33.2 57C44.3 55 55.7 45 66.8 43C78 41 89 47 100 47.8C111 48.7 122 44.3 133.2 45.7C144.3 47 155.7 54 166.8 55.2C178 56.3 189 51.7 200 48C211 44.3 222 41.7 233.2 44.3C244.3 47 255.7 55 266.8 57.7C278 60.3 289 57.7 300 51C311 44.3 322 33.7 333.2 28.5C344.3 23.3 355.7 23.7 366.8 30.8C378 38 389 52 394.5 59L400 66L400 0L394.5 0C389 0 378 0 366.8 0C355.7 0 344.3 0 333.2 0C322 0 311 0 300 0C289 0 278 0 266.8 0C255.7 0 244.3 0 233.2 0C222 0 211 0 200 0C189 0 178 0 166.8 0C155.7 0 144.3 0 133.2 0C122 0 111 0 100 0C89 0 78 0 66.8 0C55.7 0 44.3 0 33.2 0C22 0 11 0 5.5 0L0 0Z" fill="#7DC2A5" stroke-linecap="round" stroke-linejoin="miter"></path></svg>